<svg width="95" height="98" viewBox="0 0 95 98" fill="none" xmlns="http://www.w3.org/2000/svg">
<path d="M2.44829 14.2014C0.936269 15.761 0 17.9143 0 20.2891V77.7109C0 80.0857 0.936269 82.239 2.44829 83.7986L6.69713 82.2867L36.747 51.2879L36.1816 49L36.5388 46.4974L8.52272 17.5965L2.44829 14.2014Z" fill="#FEA832"/>
<path d="M58.8183 49L58.3537 51.3918L87.1977 81.1467L92.5517 83.7986C94.0637 82.239 95 80.0857 95 77.7109V20.2891C95 17.9143 94.0637 15.761 92.5517 14.2014L87.6505 16.3863L58.166 46.8019L58.8183 49Z" fill="#FE9923"/>
<path d="M92.5512 83.7977C91.048 85.3479 88.9321 86.3242 86.6504 86.3242H8.34961C6.06794 86.3242 3.95197 85.3479 2.44885 83.7977L36.1816 49L37.8518 47.8516L43.5425 53.5005C45.8434 55.7846 49.4933 55.7484 51.7513 53.4192L56.3693 48.6555L58.8184 49L92.5512 83.7977Z" fill="#FFCC33"/>
<path d="M92.5511 83.7976L58.8184 49L56.3695 48.6555L51.7514 53.4192C50.581 54.6266 49.0367 55.2161 47.5002 55.1874V86.3242H86.6506C88.9321 86.3242 91.048 85.3478 92.5511 83.7976Z" fill="#FEA832"/>
<path d="M92.5512 14.2023L51.813 56.2265C49.5306 58.581 45.8327 58.5889 43.541 56.2441L2.44885 14.2023C3.95197 12.6518 6.06794 11.6758 8.34961 11.6758H86.6504C88.9321 11.6758 91.048 12.6518 92.5512 14.2023Z" fill="#FEDB41"/>
<path d="M86.6504 11.6758H47.5V57.9934C49.056 58.0394 50.6261 57.4512 51.8132 56.2266L92.5512 14.2023C91.048 12.652 88.9321 11.6758 86.6504 11.6758Z" fill="#FFCC33"/>
</svg>
