<svg width="425" height="95" viewBox="0 0 425 95" fill="none" xmlns="http://www.w3.org/2000/svg">
<path d="M134.094 39.9922H126.113V62H121.701V39.9922H113.791V36.4062H134.094V39.9922ZM145.854 46.8828C145.291 46.7891 144.711 46.7422 144.113 46.7422C142.156 46.7422 140.838 47.4922 140.158 48.9922V62H135.887V42.9805H139.965L140.07 45.1074C141.102 43.4551 142.531 42.6289 144.359 42.6289C144.969 42.6289 145.473 42.7109 145.871 42.875L145.854 46.8828ZM159.389 62C159.201 61.6367 159.037 61.0449 158.896 60.2246C157.537 61.6426 155.873 62.3516 153.904 62.3516C151.994 62.3516 150.436 61.8066 149.229 60.7168C148.021 59.627 147.418 58.2793 147.418 56.6738C147.418 54.6465 148.168 53.0938 149.668 52.0156C151.18 50.9258 153.336 50.3809 156.137 50.3809H158.756V49.1328C158.756 48.1484 158.48 47.3633 157.93 46.7773C157.379 46.1797 156.541 45.8809 155.416 45.8809C154.443 45.8809 153.646 46.127 153.025 46.6191C152.404 47.0996 152.094 47.7148 152.094 48.4648H147.822C147.822 47.4219 148.168 46.4492 148.859 45.5469C149.551 44.6328 150.488 43.918 151.672 43.4023C152.867 42.8867 154.197 42.6289 155.662 42.6289C157.889 42.6289 159.664 43.1914 160.988 44.3164C162.312 45.4297 162.992 47 163.027 49.0273V57.6055C163.027 59.3164 163.268 60.6816 163.748 61.7012V62H159.389ZM154.695 58.9238C155.539 58.9238 156.33 58.7188 157.068 58.3086C157.818 57.8984 158.381 57.3477 158.756 56.6562V53.0703H156.453C154.871 53.0703 153.682 53.3457 152.885 53.8965C152.088 54.4473 151.689 55.2266 151.689 56.2344C151.689 57.0547 151.959 57.7109 152.498 58.2031C153.049 58.6836 153.781 58.9238 154.695 58.9238ZM171.465 42.9805L171.588 45.1777C172.994 43.4785 174.84 42.6289 177.125 42.6289C181.086 42.6289 183.102 44.8965 183.172 49.4316V62H178.9V49.6777C178.9 48.4707 178.637 47.5801 178.109 47.0059C177.594 46.4199 176.744 46.127 175.561 46.127C173.838 46.127 172.555 46.9062 171.711 48.4648V62H167.439V42.9805H171.465ZM198.201 56.832C198.201 56.0703 197.885 55.4902 197.252 55.0918C196.631 54.6934 195.594 54.3418 194.141 54.0371C192.688 53.7324 191.475 53.3457 190.502 52.877C188.369 51.8457 187.303 50.3516 187.303 48.3945C187.303 46.7539 187.994 45.3828 189.377 44.2812C190.76 43.1797 192.518 42.6289 194.65 42.6289C196.924 42.6289 198.758 43.1914 200.152 44.3164C201.559 45.4414 202.262 46.9004 202.262 48.6934H197.99C197.99 47.873 197.686 47.1934 197.076 46.6543C196.467 46.1035 195.658 45.8281 194.65 45.8281C193.713 45.8281 192.945 46.0449 192.348 46.4785C191.762 46.9121 191.469 47.4922 191.469 48.2188C191.469 48.875 191.744 49.3848 192.295 49.748C192.846 50.1113 193.959 50.4805 195.635 50.8555C197.311 51.2188 198.623 51.6582 199.572 52.1738C200.533 52.6777 201.242 53.2871 201.699 54.002C202.168 54.7168 202.402 55.584 202.402 56.6035C202.402 58.3145 201.693 59.7031 200.275 60.7695C198.857 61.8242 197 62.3516 194.703 62.3516C193.145 62.3516 191.756 62.0703 190.537 61.5078C189.318 60.9453 188.369 60.1719 187.689 59.1875C187.01 58.2031 186.67 57.1426 186.67 56.0059H190.818C190.877 57.0137 191.258 57.793 191.961 58.3438C192.664 58.8828 193.596 59.1523 194.756 59.1523C195.881 59.1523 196.736 58.9414 197.322 58.5195C197.908 58.0859 198.201 57.5234 198.201 56.832ZM207.641 62V46.1445H204.74V42.9805H207.641V41.2402C207.641 39.1309 208.227 37.502 209.398 36.3535C210.57 35.2051 212.211 34.6309 214.32 34.6309C215.07 34.6309 215.867 34.7363 216.711 34.9473L216.605 38.2871C216.137 38.1934 215.592 38.1465 214.971 38.1465C212.932 38.1465 211.912 39.1953 211.912 41.293V42.9805H215.779V46.1445H211.912V62H207.641ZM218.1 52.3145C218.1 50.4512 218.469 48.7754 219.207 47.2871C219.945 45.7871 220.982 44.6387 222.318 43.8418C223.654 43.0332 225.189 42.6289 226.924 42.6289C229.49 42.6289 231.57 43.4551 233.164 45.1074C234.77 46.7598 235.637 48.9512 235.766 51.6816L235.783 52.6836C235.783 54.5586 235.42 56.2344 234.693 57.7109C233.979 59.1875 232.947 60.3301 231.6 61.1387C230.264 61.9473 228.717 62.3516 226.959 62.3516C224.275 62.3516 222.125 61.4609 220.508 59.6797C218.902 57.8867 218.1 55.502 218.1 52.5254V52.3145ZM222.371 52.6836C222.371 54.6406 222.775 56.1758 223.584 57.2891C224.393 58.3906 225.518 58.9414 226.959 58.9414C228.4 58.9414 229.52 58.3789 230.316 57.2539C231.125 56.1289 231.529 54.4824 231.529 52.3145C231.529 50.3926 231.113 48.8691 230.281 47.7441C229.461 46.6191 228.342 46.0566 226.924 46.0566C225.529 46.0566 224.422 46.6133 223.602 47.7266C222.781 48.8281 222.371 50.4805 222.371 52.6836ZM249.354 46.8828C248.791 46.7891 248.211 46.7422 247.613 46.7422C245.656 46.7422 244.338 47.4922 243.658 48.9922V62H239.387V42.9805H243.465L243.57 45.1074C244.602 43.4551 246.031 42.6289 247.859 42.6289C248.469 42.6289 248.973 42.7109 249.371 42.875L249.354 46.8828ZM256.068 42.9805L256.191 44.9668C257.527 43.4082 259.355 42.6289 261.676 42.6289C264.219 42.6289 265.959 43.6016 266.896 45.5469C268.279 43.6016 270.225 42.6289 272.732 42.6289C274.83 42.6289 276.389 43.209 277.408 44.3691C278.439 45.5293 278.967 47.2402 278.99 49.502V62H274.719V49.625C274.719 48.418 274.455 47.5332 273.928 46.9707C273.4 46.4082 272.527 46.127 271.309 46.127C270.336 46.127 269.539 46.3906 268.918 46.918C268.309 47.4336 267.881 48.1133 267.635 48.957L267.652 62H263.381V49.4844C263.322 47.2461 262.18 46.127 259.953 46.127C258.242 46.127 257.029 46.8242 256.314 48.2188V62H252.043V42.9805H256.068ZM291.752 62.3516C289.045 62.3516 286.848 61.502 285.16 59.8027C283.484 58.0918 282.646 55.8184 282.646 52.9824V52.4551C282.646 50.5566 283.01 48.8633 283.736 47.375C284.475 45.875 285.506 44.709 286.83 43.877C288.154 43.0449 289.631 42.6289 291.26 42.6289C293.85 42.6289 295.848 43.4551 297.254 45.1074C298.672 46.7598 299.381 49.0977 299.381 52.1211V53.8438H286.953C287.082 55.4141 287.604 56.6562 288.518 57.5703C289.443 58.4844 290.604 58.9414 291.998 58.9414C293.955 58.9414 295.549 58.1504 296.779 56.5684L299.082 58.7656C298.32 59.9023 297.301 60.7871 296.023 61.4199C294.758 62.041 293.334 62.3516 291.752 62.3516ZM291.242 46.0566C290.07 46.0566 289.121 46.4668 288.395 47.2871C287.68 48.1074 287.223 49.25 287.023 50.7148H295.162V50.3984C295.068 48.9688 294.688 47.8906 294.02 47.1641C293.352 46.4258 292.426 46.0566 291.242 46.0566ZM312.67 46.8828C312.107 46.7891 311.527 46.7422 310.93 46.7422C308.973 46.7422 307.654 47.4922 306.975 48.9922V62H302.703V42.9805H306.781L306.887 45.1074C307.918 43.4551 309.348 42.6289 311.176 42.6289C311.785 42.6289 312.289 42.7109 312.688 42.875L312.67 46.8828ZM342.184 39.9922H334.203V62H329.791V39.9922H321.881V36.4062H342.184V39.9922ZM351.939 62.3516C349.232 62.3516 347.035 61.502 345.348 59.8027C343.672 58.0918 342.834 55.8184 342.834 52.9824V52.4551C342.834 50.5566 343.197 48.8633 343.924 47.375C344.662 45.875 345.693 44.709 347.018 43.877C348.342 43.0449 349.818 42.6289 351.447 42.6289C354.037 42.6289 356.035 43.4551 357.441 45.1074C358.859 46.7598 359.568 49.0977 359.568 52.1211V53.8438H347.141C347.27 55.4141 347.791 56.6562 348.705 57.5703C349.631 58.4844 350.791 58.9414 352.186 58.9414C354.143 58.9414 355.736 58.1504 356.967 56.5684L359.27 58.7656C358.508 59.9023 357.488 60.7871 356.211 61.4199C354.945 62.041 353.521 62.3516 351.939 62.3516ZM351.43 46.0566C350.258 46.0566 349.309 46.4668 348.582 47.2871C347.867 48.1074 347.41 49.25 347.211 50.7148H355.35V50.3984C355.256 48.9688 354.875 47.8906 354.207 47.1641C353.539 46.4258 352.613 46.0566 351.43 46.0566ZM373.561 56.832C373.561 56.0703 373.244 55.4902 372.611 55.0918C371.99 54.6934 370.953 54.3418 369.5 54.0371C368.047 53.7324 366.834 53.3457 365.861 52.877C363.729 51.8457 362.662 50.3516 362.662 48.3945C362.662 46.7539 363.354 45.3828 364.736 44.2812C366.119 43.1797 367.877 42.6289 370.01 42.6289C372.283 42.6289 374.117 43.1914 375.512 44.3164C376.918 45.4414 377.621 46.9004 377.621 48.6934H373.35C373.35 47.873 373.045 47.1934 372.436 46.6543C371.826 46.1035 371.018 45.8281 370.01 45.8281C369.072 45.8281 368.305 46.0449 367.707 46.4785C367.121 46.9121 366.828 47.4922 366.828 48.2188C366.828 48.875 367.104 49.3848 367.654 49.748C368.205 50.1113 369.318 50.4805 370.994 50.8555C372.67 51.2188 373.982 51.6582 374.932 52.1738C375.893 52.6777 376.602 53.2871 377.059 54.002C377.527 54.7168 377.762 55.584 377.762 56.6035C377.762 58.3145 377.053 59.7031 375.635 60.7695C374.217 61.8242 372.359 62.3516 370.062 62.3516C368.504 62.3516 367.115 62.0703 365.896 61.5078C364.678 60.9453 363.729 60.1719 363.049 59.1875C362.369 58.2031 362.029 57.1426 362.029 56.0059H366.178C366.236 57.0137 366.617 57.793 367.32 58.3438C368.023 58.8828 368.955 59.1523 370.115 59.1523C371.24 59.1523 372.096 58.9414 372.682 58.5195C373.268 58.0859 373.561 57.5234 373.561 56.832ZM386.85 38.3574V42.9805H390.207V46.1445H386.85V56.7617C386.85 57.4883 386.99 58.0156 387.271 58.3438C387.564 58.6602 388.08 58.8184 388.818 58.8184C389.311 58.8184 389.809 58.7598 390.312 58.6426V61.9473C389.34 62.2168 388.402 62.3516 387.5 62.3516C384.219 62.3516 382.578 60.541 382.578 56.9199V46.1445H379.449V42.9805H382.578V38.3574H386.85Z" fill="#F2C94C"/>
<g filter="url(#filter0_d)">
<path d="M5 11.1007L34.6904 21.0302L31.107 27.1934L19.6745 23.3414L46.6348 72.1329L73.6803 23.2558L64.1248 26.5086L60.4561 20.5166L88.3548 11.1007L46.6348 86L5 11.1007Z" fill="#F2C94C"/>
<path d="M5.15858 10.6265C4.96293 10.5611 4.74718 10.6225 4.61536 10.7812C4.48355 10.94 4.46275 11.1633 4.56298 11.3436L46.1977 86.2429C46.2859 86.4015 46.4531 86.4999 46.6345 86.5C46.816 86.5001 46.9833 86.4018 47.0716 86.2433L88.7916 11.344C88.8922 11.1635 88.8713 10.9397 88.7392 10.7809C88.607 10.622 88.3907 10.5609 88.1949 10.627L60.2962 20.0429C60.1521 20.0915 60.038 20.2031 59.9861 20.3461C59.9342 20.4891 59.9503 20.648 60.0297 20.7777L63.6983 26.7696C63.8205 26.9691 64.0645 27.0573 64.2859 26.9819L72.6161 24.1462L46.6351 71.0997L20.7347 24.2262L30.9474 27.6672C31.1725 27.743 31.4199 27.65 31.5393 27.4447L35.1226 21.2815C35.1982 21.1515 35.2113 20.9944 35.1582 20.8537C35.1051 20.7131 34.9915 20.6037 34.8489 20.556L5.15858 10.6265Z" stroke="url(#paint0_linear)" stroke-linejoin="round"/>
<path d="M5.15858 10.6265C4.96293 10.5611 4.74718 10.6225 4.61536 10.7812C4.48355 10.94 4.46275 11.1633 4.56298 11.3436L46.1977 86.2429C46.2859 86.4015 46.4531 86.4999 46.6345 86.5C46.816 86.5001 46.9833 86.4018 47.0716 86.2433L88.7916 11.344C88.8922 11.1635 88.8713 10.9397 88.7392 10.7809C88.607 10.622 88.3907 10.5609 88.1949 10.627L60.2962 20.0429C60.1521 20.0915 60.038 20.2031 59.9861 20.3461C59.9342 20.4891 59.9503 20.648 60.0297 20.7777L63.6983 26.7696C63.8205 26.9691 64.0645 27.0573 64.2859 26.9819L72.6161 24.1462L46.6351 71.0997L20.7347 24.2262L30.9474 27.6672C31.1725 27.743 31.4199 27.65 31.5393 27.4447L35.1226 21.2815C35.1982 21.1515 35.2113 20.9944 35.1582 20.8537C35.1051 20.7131 34.9915 20.6037 34.8489 20.556L5.15858 10.6265Z" stroke="url(#paint1_linear)" stroke-linejoin="round"/>
</g>
<g filter="url(#filter1_d)">
<path d="M48.5118 1L35.4583 33.8701H42.9662L45.5257 57.2387L58.6645 24.283H50.986L48.5118 1Z" fill="#F2C94C"/>
<path d="M49.009 0.947164C48.9847 0.718453 48.8075 0.535823 48.5796 0.504622C48.3517 0.473421 48.132 0.601697 48.0471 0.815457L34.9936 33.6855C34.9324 33.8395 34.9515 34.0138 35.0446 34.1509C35.1376 34.288 35.2926 34.3701 35.4583 34.3701H42.5179L45.0286 57.2931C45.0536 57.5213 45.2308 57.7032 45.4583 57.7341C45.6858 57.765 45.9051 57.6371 45.9901 57.4238L59.129 24.4681C59.1904 24.3141 59.1714 24.1397 59.0784 24.0024C58.9853 23.8652 58.8303 23.783 58.6645 23.783H51.4357L49.009 0.947164Z" stroke="url(#paint2_linear)" stroke-linejoin="round"/>
<path d="M49.009 0.947164C48.9847 0.718453 48.8075 0.535823 48.5796 0.504622C48.3517 0.473421 48.132 0.601697 48.0471 0.815457L34.9936 33.6855C34.9324 33.8395 34.9515 34.0138 35.0446 34.1509C35.1376 34.288 35.2926 34.3701 35.4583 34.3701H42.5179L45.0286 57.2931C45.0536 57.5213 45.2308 57.7032 45.4583 57.7341C45.6858 57.765 45.9051 57.6371 45.9901 57.4238L59.129 24.4681C59.1904 24.3141 59.1714 24.1397 59.0784 24.0024C58.9853 23.8652 58.8303 23.783 58.6645 23.783H51.4357L49.009 0.947164Z" stroke="url(#paint3_linear)" stroke-linejoin="round"/>
</g>
<defs>
<filter id="filter0_d" x="0" y="10.1006" width="93.3549" height="84.8993" filterUnits="userSpaceOnUse" color-interpolation-filters="sRGB">
<feFlood flood-opacity="0" result="BackgroundImageFix"/>
<feColorMatrix in="SourceAlpha" type="matrix" values="0 0 0 0 0 0 0 0 0 0 0 0 0 0 0 0 0 0 127 0"/>
<feOffset dy="4"/>
<feGaussianBlur stdDeviation="2"/>
<feColorMatrix type="matrix" values="0 0 0 0 0 0 0 0 0 0 0 0 0 0 0 0 0 0 0.5 0"/>
<feBlend mode="normal" in2="BackgroundImageFix" result="effect1_dropShadow"/>
<feBlend mode="normal" in="SourceGraphic" in2="effect1_dropShadow" result="shape"/>
</filter>
<filter id="filter1_d" x="30.4583" y="-6.10352e-05" width="33.2063" height="66.2388" filterUnits="userSpaceOnUse" color-interpolation-filters="sRGB">
<feFlood flood-opacity="0" result="BackgroundImageFix"/>
<feColorMatrix in="SourceAlpha" type="matrix" values="0 0 0 0 0 0 0 0 0 0 0 0 0 0 0 0 0 0 127 0"/>
<feOffset dy="4"/>
<feGaussianBlur stdDeviation="2"/>
<feColorMatrix type="matrix" values="0 0 0 0 0 0 0 0 0 0 0 0 0 0 0 0 0 0 0.5 0"/>
<feBlend mode="normal" in2="BackgroundImageFix" result="effect1_dropShadow"/>
<feBlend mode="normal" in="SourceGraphic" in2="effect1_dropShadow" result="shape"/>
</filter>
<linearGradient id="paint0_linear" x1="47" y1="86" x2="46.7352" y2="6.20245" gradientUnits="userSpaceOnUse">
<stop stop-color="#202024"/>
<stop offset="1" stop-opacity="0"/>
</linearGradient>
<linearGradient id="paint1_linear" x1="46.7352" y1="11.0581" x2="46.6774" y2="86" gradientUnits="userSpaceOnUse">
<stop stop-color="#FFDC64"/>
<stop offset="1" stop-color="#FFDC64" stop-opacity="0"/>
</linearGradient>
<linearGradient id="paint2_linear" x1="47" y1="57" x2="47.0821" y2="1" gradientUnits="userSpaceOnUse">
<stop/>
<stop offset="1" stop-opacity="0"/>
</linearGradient>
<linearGradient id="paint3_linear" x1="47.0821" y1="1" x2="47.0821" y2="57.1865" gradientUnits="userSpaceOnUse">
<stop stop-color="#FFDC64"/>
<stop offset="1" stop-color="#FFDC64" stop-opacity="0"/>
</linearGradient>
</defs>
</svg>
